<?xml version="1.0" encoding="utf-8"?>
<!-- Generator: Adobe Illustrator 19.1.0, SVG Export Plug-In . SVG Version: 6.00 Build 0)  -->
<svg version="1.1" id="Layer_1" xmlns="http://www.w3.org/2000/svg" xmlns:xlink="http://www.w3.org/1999/xlink" x="0px" y="0px"
	 viewBox="0 0 641.4 128.9" style="enable-background:new 0 0 641.4 128.9;" xml:space="preserve">
<style type="text/css">
	.st0{fill:#F2F2F2;}
</style>
<path class="st0" d="M0,3.6l14.1,14.1c0.8,0.8,0.8,2.1,0,2.8L0,34.7"/>
<path class="st0" d="M33.1,1.6L18.9,15.8c-0.8,0.8-2.1,0.8-2.8,0L1.9,1.6"/>
<path class="st0" d="M33,39.4L18.8,53.5c-0.8,0.8-2.1,0.8-2.8,0L1.8,39.4c-0.8-0.8-0.8-2.1,0-2.8L16,22.4c0.8-0.8,2.1-0.8,2.8,0
	L33,36.5C33.7,37.3,33.7,38.6,33,39.4z"/>
<path class="st0" d="M51.9,20.4L37.7,34.6c-0.8,0.8-2.1,0.8-2.8,0L20.8,20.4c-0.8-0.8-0.8-2.1,0-2.8L34.9,3.5c0.8-0.8,2.1-0.8,2.8,0
	l14.1,14.1C52.6,18.4,52.6,19.7,51.9,20.4z"/>
<path class="st0" d="M70.8,1.5L56.6,15.7c-0.8,0.8-2.1,0.8-2.8,0L39.7,1.5"/>
<path class="st0" d="M89.6,20.3L75.5,34.5c-0.8,0.8-2.1,0.8-2.8,0L58.5,20.3c-0.8-0.8-0.8-2.1,0-2.8L72.6,3.4c0.8-0.8,2.1-0.8,2.8,0
	l14.1,14.1C90.4,18.3,90.4,19.6,89.6,20.3z"/>
<path class="st0" d="M108.5,1.4L94.4,15.6c-0.8,0.8-2.1,0.8-2.8,0L77.4,1.4"/>
<path class="st0" d="M108.4,39.2L94.3,53.3c-0.8,0.8-2.1,0.8-2.8,0L77.3,39.2c-0.8-0.8-0.8-2.1,0-2.8l14.1-14.1
	c0.8-0.8,2.1-0.8,2.8,0l14.1,14.1C109.2,37.1,109.2,38.4,108.4,39.2z"/>
<path class="st0" d="M127.3,20.2l-14.1,14.1c-0.8,0.8-2.1,0.8-2.8,0L96.2,20.2c-0.8-0.8-0.8-2.1,0-2.8l14.1-14.1
	c0.8-0.8,2.1-0.8,2.8,0l14.1,14.1C128.1,18.2,128.1,19.5,127.3,20.2z"/>
<path class="st0" d="M146.2,1.3l-14.1,14.1c-0.8,0.8-2.1,0.8-2.8,0L115.1,1.3"/>
<path class="st0" d="M127.2,58l-14.1,14.1c-0.8,0.8-2.1,0.8-2.8,0L96.1,58c-0.8-0.8-0.8-2.1,0-2.8L110.3,41c0.8-0.8,2.1-0.8,2.8,0
	l14.1,14.1C128,55.9,128,57.2,127.2,58z"/>
<path class="st0" d="M165.1,20.1l-14.1,14.1c-0.8,0.8-2.1,0.8-2.8,0l-14.1-14.1c-0.8-0.8-0.8-2.1,0-2.8l14.1-14.1
	c0.8-0.8,2.1-0.8,2.8,0l14.1,14.1C165.8,18.1,165.8,19.4,165.1,20.1z"/>
<path class="st0" d="M184,1.2l-14.1,14.1c-0.8,0.8-2.1,0.8-2.8,0L152.9,1.2"/>
<path class="st0" d="M183.9,39l-14.1,14.1c-0.8,0.8-2.1,0.8-2.8,0L152.8,39c-0.8-0.8-0.8-2.1,0-2.8L166.9,22c0.8-0.8,2.1-0.8,2.8,0
	l14.1,14.1C184.6,36.9,184.6,38.2,183.9,39z"/>
<path class="st0" d="M202.8,20l-14.1,14.1c-0.8,0.8-2.1,0.8-2.8,0L171.7,20c-0.8-0.8-0.8-2.1,0-2.8l14.1-14.1c0.8-0.8,2.1-0.8,2.8,0
	l14.1,14.1C203.6,18,203.6,19.3,202.8,20z"/>
<path class="st0" d="M221.7,1.1l-14.1,14.1c-0.8,0.8-2.1,0.8-2.8,0L190.6,1.1"/>
<path class="st0" d="M183.8,76.7l-14.1,14.1c-0.8,0.8-2.1,0.8-2.8,0l-14.1-14.1c-0.8-0.8-0.8-2.1,0-2.8l14.1-14.1
	c0.8-0.8,2.1-0.8,2.8,0l14.1,14.1C184.5,74.6,184.5,75.9,183.8,76.7z"/>
<path class="st0" d="M202.7,57.8l-14.1,14.1c-0.8,0.8-2.1,0.8-2.8,0l-14.1-14.1c-0.8-0.8-0.8-2.1,0-2.8l14.1-14.1
	c0.8-0.8,2.1-0.8,2.8,0l14.1,14.1C203.5,55.7,203.5,57,202.7,57.8z"/>
<path class="st0" d="M221.6,38.9L207.5,53c-0.8,0.8-2.1,0.8-2.8,0l-14.1-14.1c-0.8-0.8-0.8-2.1,0-2.8l14.1-14.1
	c0.8-0.8,2.1-0.8,2.8,0L221.6,36C222.4,36.8,222.4,38.1,221.6,38.9z"/>
<path class="st0" d="M240.5,19.9l-14.1,14.1c-0.8,0.8-2.1,0.8-2.8,0l-14.1-14.1c-0.8-0.8-0.8-2.1,0-2.8L223.5,3
	c0.8-0.8,2.1-0.8,2.8,0l14.1,14.1C241.3,17.9,241.3,19.2,240.5,19.9z"/>
<path class="st0" d="M259.4,1l-14.1,14.1c-0.8,0.8-2.1,0.8-2.8,0L228.3,1"/>
<path class="st0" d="M202.6,95.5l-14.1,14.1c-0.8,0.8-2.1,0.8-2.8,0l-14.1-14.1c-0.8-0.8-0.8-2.1,0-2.8l14.1-14.1
	c0.8-0.8,2.1-0.8,2.8,0l14.1,14.1C203.4,93.4,203.4,94.7,202.6,95.5z"/>
<path class="st0" d="M259.3,38.7l-14.1,14.1c-0.8,0.8-2.1,0.8-2.8,0l-14.1-14.1c-0.8-0.8-0.8-2.1,0-2.8l14.1-14.1
	c0.8-0.8,2.1-0.8,2.8,0l14.1,14.1C260.1,36.7,260.1,38,259.3,38.7z"/>
<path class="st0" d="M278.2,19.8L264.1,34c-0.8,0.8-2.1,0.8-2.8,0l-14.1-14.1c-0.8-0.8-0.8-2.1,0-2.8l14.1-14.1
	c0.8-0.8,2.1-0.8,2.8,0L278.2,17C279,17.8,279,19.1,278.2,19.8z"/>
<path class="st0" d="M297.2,0.9L283,15.1c-0.8,0.8-2.1,0.8-2.8,0L266,0.9"/>
<path class="st0" d="M259.2,76.5l-14.1,14.1c-0.8,0.8-2.1,0.8-2.8,0l-14.1-14.1c-0.8-0.8-0.8-2.1,0-2.8l14.1-14.1
	c0.8-0.8,2.1-0.8,2.8,0l14.1,14.1C260,74.4,260,75.7,259.2,76.5z"/>
<path class="st0" d="M278.1,57.6L264,71.7c-0.8,0.8-2.1,0.8-2.8,0L247,57.6c-0.8-0.8-0.8-2.1,0-2.8l14.1-14.1c0.8-0.8,2.1-0.8,2.8,0
	l14.1,14.1C278.9,55.5,278.9,56.8,278.1,57.6z"/>
<path class="st0" d="M316,19.7l-14.1,14.1c-0.8,0.8-2.1,0.8-2.8,0l-14.1-14.1c-0.8-0.8-0.8-2.1,0-2.8L299,2.8c0.8-0.8,2.1-0.8,2.8,0
	L316,16.9C316.7,17.7,316.7,19,316,19.7z"/>
<path class="st0" d="M334.9,0.8L320.7,15c-0.8,0.8-2.1,0.8-2.8,0L303.8,0.8"/>
<path class="st0" d="M259.1,114.2L245,128.3c-0.8,0.8-2.1,0.8-2.8,0L228,114.2c-0.8-0.8-0.8-2.1,0-2.8l14.1-14.1
	c0.8-0.8,2.1-0.8,2.8,0l14.1,14.1C259.9,112.2,259.9,113.4,259.1,114.2z"/>
<path class="st0" d="M334.8,38.5l-14.1,14.1c-0.8,0.8-2.1,0.8-2.8,0l-14.1-14.1c-0.8-0.8-0.8-2.1,0-2.8l14.1-14.1
	c0.8-0.8,2.1-0.8,2.8,0l14.1,14.1C335.6,36.5,335.6,37.8,334.8,38.5z"/>
<path class="st0" d="M353.7,19.6l-14.1,14.1c-0.8,0.8-2.1,0.8-2.8,0l-14.1-14.1c-0.8-0.8-0.8-2.1,0-2.8l14.1-14.1
	c0.8-0.8,2.1-0.8,2.8,0l14.1,14.1C354.5,17.6,354.5,18.9,353.7,19.6z"/>
<path class="st0" d="M372.6,0.7l-14.1,14.1c-0.8,0.8-2.1,0.8-2.8,0L341.5,0.7"/>
<path class="st0" d="M353.6,57.4l-14.1,14.1c-0.8,0.8-2.1,0.8-2.8,0l-14.1-14.1c-0.8-0.8-0.8-2.1,0-2.8l14.1-14.1
	c0.8-0.8,2.1-0.8,2.8,0l14.1,14.1C354.4,55.3,354.4,56.6,353.6,57.4z"/>
<path class="st0" d="M391.4,19.5l-14.1,14.1c-0.8,0.8-2.1,0.8-2.8,0l-14.1-14.1c-0.8-0.8-0.8-2.1,0-2.8l14.1-14.1
	c0.8-0.8,2.1-0.8,2.8,0l14.1,14.1C392.2,17.5,392.2,18.8,391.4,19.5z"/>
<path class="st0" d="M410.3,0.6l-14.1,14.1c-0.8,0.8-2.1,0.8-2.8,0L379.2,0.6"/>
<path class="st0" d="M353.5,95.1l-14.1,14.1c-0.8,0.8-2.1,0.8-2.8,0l-14.1-14.1c-0.8-0.8-0.8-2.1,0-2.8l14.1-14.1
	c0.8-0.8,2.1-0.8,2.8,0l14.1,14.1C354.3,93,354.3,94.3,353.5,95.1z"/>
<path class="st0" d="M391.3,57.3l-14.1,14.1c-0.8,0.8-2.1,0.8-2.8,0l-14.1-14.1c-0.8-0.8-0.8-2.1,0-2.8l14.1-14.1
	c0.8-0.8,2.1-0.8,2.8,0l14.1,14.1C392.1,55.2,392.1,56.5,391.3,57.3z"/>
<path class="st0" d="M429.2,19.4L415,33.6c-0.8,0.8-2.1,0.8-2.8,0L398,19.4c-0.8-0.8-0.8-2.1,0-2.8l14.1-14.1c0.8-0.8,2.1-0.8,2.8,0
	l14.1,14.1C429.9,17.4,429.9,18.6,429.2,19.4z"/>
<path class="st0" d="M448.1,0.5l-14.1,14.1c-0.8,0.8-2.1,0.8-2.8,0L417,0.5"/>
<path class="st0" d="M372.3,113.9L358.2,128c-0.8,0.8-2.1,0.8-2.8,0l-14.1-14.1c-0.8-0.8-0.8-2.1,0-2.8l14.1-14.1
	c0.8-0.8,2.1-0.8,2.8,0l14.1,14.1C373.1,111.8,373.1,113.1,372.3,113.9z"/>
<path class="st0" d="M391.2,95l-14.1,14.1c-0.8,0.8-2.1,0.8-2.8,0L360.1,95c-0.8-0.8-0.8-2.1,0-2.8L374.2,78c0.8-0.8,2.1-0.8,2.8,0
	l14.1,14.1C392,92.9,392,94.2,391.2,95z"/>
<path class="st0" d="M429,57.2l-14.1,14.1c-0.8,0.8-2.1,0.8-2.8,0l-14.1-14.1c-0.8-0.8-0.8-2.1,0-2.8l14.1-14.1
	c0.8-0.8,2.1-0.8,2.8,0L429,54.3C429.8,55.1,429.8,56.4,429,57.2z"/>
<path class="st0" d="M448,38.2l-14.1,14.1c-0.8,0.8-2.1,0.8-2.8,0l-14.1-14.1c-0.8-0.8-0.8-2.1,0-2.8L431,21.3
	c0.8-0.8,2.1-0.8,2.8,0L448,35.4C448.7,36.2,448.7,37.5,448,38.2z"/>
<path class="st0" d="M466.9,19.3l-14.1,14.1c-0.8,0.8-2.1,0.8-2.8,0l-14.1-14.1c-0.8-0.8-0.8-2.1,0-2.8l14.1-14.1
	c0.8-0.8,2.1-0.8,2.8,0l14.1,14.1C467.7,17.3,467.7,18.5,466.9,19.3z"/>
<path class="st0" d="M485.8,0.4l-14.1,14.1c-0.8,0.8-2.1,0.8-2.8,0L454.7,0.4"/>
<path class="st0" d="M428.9,94.9L414.8,109c-0.8,0.8-2.1,0.8-2.8,0l-14.1-14.1c-0.8-0.8-0.8-2.1,0-2.8L412,77.9
	c0.8-0.8,2.1-0.8,2.8,0l14.1,14.1C429.7,92.8,429.7,94.1,428.9,94.9z"/>
<path class="st0" d="M447.9,76l-14.1,14.1c-0.8,0.8-2.1,0.8-2.8,0L416.7,76c-0.8-0.8-0.8-2.1,0-2.8L430.9,59c0.8-0.8,2.1-0.8,2.8,0
	l14.1,14.1C448.6,73.9,448.6,75.2,447.9,76z"/>
<path class="st0" d="M485.7,38.1l-14.1,14.1c-0.8,0.8-2.1,0.8-2.8,0l-14.1-14.1c-0.8-0.8-0.8-2.1,0-2.8l14.1-14.1
	c0.8-0.8,2.1-0.8,2.8,0l14.1,14.1C486.5,36.1,486.5,37.4,485.7,38.1z"/>
<path class="st0" d="M504.6,19.2l-14.1,14.1c-0.8,0.8-2.1,0.8-2.8,0l-14.1-14.1c-0.8-0.8-0.8-2.1,0-2.8l14.1-14.1
	c0.8-0.8,2.1-0.8,2.8,0l14.1,14.1C505.4,17.2,505.4,18.4,504.6,19.2z"/>
<path class="st0" d="M523.5,0.3l-14.1,14.1c-0.8,0.8-2.1,0.8-2.8,0L492.4,0.3"/>
<path class="st0" d="M485.6,75.9L471.4,90c-0.8,0.8-2.1,0.8-2.8,0l-14.1-14.1c-0.8-0.8-0.8-2.1,0-2.8l14.1-14.1
	c0.8-0.8,2.1-0.8,2.8,0L485.6,73C486.4,73.8,486.4,75.1,485.6,75.9z"/>
<path class="st0" d="M504.5,56.9l-14.1,14.1c-0.8,0.8-2.1,0.8-2.8,0l-14.1-14.1c-0.8-0.8-0.8-2.1,0-2.8L487.5,40
	c0.8-0.8,2.1-0.8,2.8,0l14.1,14.1C505.3,54.9,505.3,56.2,504.5,56.9z"/>
<path class="st0" d="M542.3,19.1l-14.1,14.1c-0.8,0.8-2.1,0.8-2.8,0l-14.1-14.1c-0.8-0.8-0.8-2.1,0-2.8l14.1-14.1
	c0.8-0.8,2.1-0.8,2.8,0l14.1,14.1C543.1,17.1,543.1,18.3,542.3,19.1z"/>
<path class="st0" d="M561.2,0.2l-14.1,14.1c-0.8,0.8-2.1,0.8-2.8,0L530.1,0.2"/>
<path class="st0" d="M485.5,113.6l-14.1,14.1c-0.8,0.8-2.1,0.8-2.8,0l-14.1-14.1c-0.8-0.8-0.8-2.1,0-2.8l14.1-14.1
	c0.8-0.8,2.1-0.8,2.8,0l14.1,14.1C486.3,111.5,486.3,112.8,485.5,113.6z"/>
<path class="st0" d="M504.4,94.7l-14.1,14.1c-0.8,0.8-2.1,0.8-2.8,0l-14.1-14.1c-0.8-0.8-0.8-2.1,0-2.8l14.1-14.1
	c0.8-0.8,2.1-0.8,2.8,0l14.1,14.1C505.2,92.6,505.2,93.9,504.4,94.7z"/>
<path class="st0" d="M542.2,56.8L528.1,71c-0.8,0.8-2.1,0.8-2.8,0l-14.1-14.1c-0.8-0.8-0.8-2.1,0-2.8l14.1-14.1
	c0.8-0.8,2.1-0.8,2.8,0L542.2,54C543,54.8,543,56.1,542.2,56.8z"/>
<path class="st0" d="M580.1,19l-14.1,14.1c-0.8,0.8-2.1,0.8-2.8,0L548.9,19c-0.8-0.8-0.8-2.1,0-2.8L563.1,2c0.8-0.8,2.1-0.8,2.8,0
	l14.1,14.1C580.8,17,580.8,18.2,580.1,19z"/>
<path class="st0" d="M599,0.1l-14.1,14.1c-0.8,0.8-2.1,0.8-2.8,0L567.9,0.1"/>
<path class="st0" d="M598.9,37.8L584.7,52c-0.8,0.8-2.1,0.8-2.8,0l-14.1-14.1c-0.8-0.8-0.8-2.1,0-2.8l14.1-14.1
	c0.8-0.8,2.1-0.8,2.8,0L598.9,35C599.7,35.8,599.7,37.1,598.9,37.8z"/>
<path class="st0" d="M617.8,18.9l-14.1,14.1c-0.8,0.8-2.1,0.8-2.8,0l-14.1-14.1c-0.8-0.8-0.8-2.1,0-2.8l14.1-14.1
	c0.8-0.8,2.1-0.8,2.8,0l14.1,14.1C618.6,16.9,618.6,18.1,617.8,18.9z"/>
<path class="st0" d="M636.7,0l-14.1,14.1c-0.8,0.8-2.1,0.8-2.8,0L605.6,0"/>
<path class="st0" d="M617.7,56.6l-14.1,14.1c-0.8,0.8-2.1,0.8-2.8,0l-14.1-14.1c-0.8-0.8-0.8-2.1,0-2.8l14.1-14.1
	c0.8-0.8,2.1-0.8,2.8,0l14.1,14.1C618.5,54.6,618.5,55.9,617.7,56.6z"/>
<path class="st0" d="M636.6,37.7l-14.1,14.1c-0.8,0.8-2.1,0.8-2.8,0l-14.1-14.1c-0.8-0.8-0.8-2.1,0-2.8l14.1-14.1
	c0.8-0.8,2.1-0.8,2.8,0l14.1,14.1C637.4,35.7,637.4,37,636.6,37.7z"/>
<path class="st0" d="M641.4,33c-0.8,0.8-2.1,0.8-2.8,0l-14.1-14.1c-0.8-0.8-0.8-2.1,0-2.8l14.1-14.1c0.8-0.8,2.1-0.8,2.8,0"/>
</svg>
