<?xml version="1.0" encoding="utf-8"?>
<!-- Generator: Adobe Illustrator 19.1.0, SVG Export Plug-In . SVG Version: 6.00 Build 0)  -->
<svg version="1.1" id="Layer_1" xmlns="http://www.w3.org/2000/svg" xmlns:xlink="http://www.w3.org/1999/xlink" x="0px" y="0px"
	 viewBox="0 0 641.4 128.9" style="enable-background:new 0 0 641.4 128.9;" xml:space="preserve">
<style type="text/css">
	.st0{fill:#F2F2F2;}
</style>
<path class="st0" d="M641.4,125.4l-14.1-14.1c-0.8-0.8-0.8-2.1,0-2.8l14.1-14.1"/>
<path class="st0" d="M608.3,127.3l14.1-14.1c0.8-0.8,2.1-0.8,2.8,0l14.1,14.1"/>
<path class="st0" d="M608.4,89.6l14.1-14.1c0.8-0.8,2.1-0.8,2.8,0l14.1,14.1c0.8,0.8,0.8,2.1,0,2.8l-14.1,14.1
	c-0.8,0.8-2.1,0.8-2.8,0l-14.1-14.1C607.6,91.6,607.6,90.3,608.4,89.6z"/>
<path class="st0" d="M589.5,108.5l14.1-14.1c0.8-0.8,2.1-0.8,2.8,0l14.1,14.1c0.8,0.8,0.8,2.1,0,2.8l-14.1,14.1
	c-0.8,0.8-2.1,0.8-2.8,0l-14.1-14.1C588.7,110.5,588.7,109.3,589.5,108.5z"/>
<path class="st0" d="M570.6,127.4l14.1-14.1c0.8-0.8,2.1-0.8,2.8,0l14.1,14.1"/>
<path class="st0" d="M551.8,108.6l14.1-14.1c0.8-0.8,2.1-0.8,2.8,0l14.1,14.1c0.8,0.8,0.8,2.1,0,2.8l-14.1,14.1
	c-0.8,0.8-2.1,0.8-2.8,0l-14.1-14.1C551,110.6,551,109.4,551.8,108.6z"/>
<path class="st0" d="M532.9,127.5l14.1-14.1c0.8-0.8,2.1-0.8,2.8,0l14.1,14.1"/>
<path class="st0" d="M533,89.8l14.1-14.1c0.8-0.8,2.1-0.8,2.8,0l14.1,14.1c0.8,0.8,0.8,2.1,0,2.8l-14.1,14.1c-0.8,0.8-2.1,0.8-2.8,0
	L533,92.6C532.2,91.8,532.2,90.6,533,89.8z"/>
<path class="st0" d="M514.1,108.7l14.1-14.1c0.8-0.8,2.1-0.8,2.8,0l14.1,14.1c0.8,0.8,0.8,2.1,0,2.8L531,125.7
	c-0.8,0.8-2.1,0.8-2.8,0l-14.1-14.1C513.3,110.7,513.3,109.5,514.1,108.7z"/>
<path class="st0" d="M495.1,127.6l14.1-14.1c0.8-0.8,2.1-0.8,2.8,0l14.1,14.1"/>
<path class="st0" d="M514.2,71l14.1-14.1c0.8-0.8,2.1-0.8,2.8,0L545.3,71c0.8,0.8,0.8,2.1,0,2.8l-14.1,14.1c-0.8,0.8-2.1,0.8-2.8,0
	l-14.1-14.1C513.4,73,513.4,71.7,514.2,71z"/>
<path class="st0" d="M476.3,108.8l14.1-14.1c0.8-0.8,2.1-0.8,2.8,0l14.1,14.1c0.8,0.8,0.8,2.1,0,2.8l-14.1,14.1
	c-0.8,0.8-2.1,0.8-2.8,0l-14.1-14.1C475.5,110.8,475.5,109.6,476.3,108.8z"/>
<path class="st0" d="M457.4,127.7l14.1-14.1c0.8-0.8,2.1-0.8,2.8,0l14.1,14.1"/>
<path class="st0" d="M457.5,90l14.1-14.1c0.8-0.8,2.1-0.8,2.8,0L488.6,90c0.8,0.8,0.8,2.1,0,2.8l-14.1,14.1c-0.8,0.8-2.1,0.8-2.8,0
	l-14.1-14.1C456.7,92,456.7,90.8,457.5,90z"/>
<path class="st0" d="M438.6,108.9l14.1-14.1c0.8-0.8,2.1-0.8,2.8,0l14.1,14.1c0.8,0.8,0.8,2.1,0,2.8l-14.1,14.1
	c-0.8,0.8-2.1,0.8-2.8,0l-14.1-14.1C437.8,110.9,437.8,109.7,438.6,108.9z"/>
<path class="st0" d="M419.7,127.8l14.1-14.1c0.8-0.8,2.1-0.8,2.8,0l14.1,14.1"/>
<path class="st0" d="M457.6,52.2l14.1-14.1c0.8-0.8,2.1-0.8,2.8,0l14.1,14.1c0.8,0.8,0.8,2.1,0,2.8l-14.1,14.1
	c-0.8,0.8-2.1,0.8-2.8,0l-14.1-14.1C456.8,54.3,456.8,53,457.6,52.2z"/>
<path class="st0" d="M438.7,71.2L452.8,57c0.8-0.8,2.1-0.8,2.8,0l14.1,14.1c0.8,0.8,0.8,2.1,0,2.8l-14.1,14.1
	c-0.8,0.8-2.1,0.8-2.8,0L438.7,74C437.9,73.2,437.9,71.9,438.7,71.2z"/>
<path class="st0" d="M419.8,90.1l14.1-14.1c0.8-0.8,2.1-0.8,2.8,0l14.1,14.1c0.8,0.8,0.8,2.1,0,2.8L436.8,107
	c-0.8,0.8-2.1,0.8-2.8,0l-14.1-14.1C419,92.1,419,90.9,419.8,90.1z"/>
<path class="st0" d="M400.9,109L415,94.9c0.8-0.8,2.1-0.8,2.8,0L432,109c0.8,0.8,0.8,2.1,0,2.8L417.8,126c-0.8,0.8-2.1,0.8-2.8,0
	l-14.1-14.1C400.1,111,400.1,109.8,400.9,109z"/>
<path class="st0" d="M382,127.9l14.1-14.1c0.8-0.8,2.1-0.8,2.8,0l14.1,14.1"/>
<path class="st0" d="M438.8,33.4l14.1-14.1c0.8-0.8,2.1-0.8,2.8,0l14.1,14.1c0.8,0.8,0.8,2.1,0,2.8l-14.1,14.1
	c-0.8,0.8-2.1,0.8-2.8,0l-14.1-14.1C438,35.5,438,34.2,438.8,33.4z"/>
<path class="st0" d="M382.1,90.2L396.2,76c0.8-0.8,2.1-0.8,2.8,0l14.1,14.1c0.8,0.8,0.8,2.1,0,2.8L399,107.2c-0.8,0.8-2.1,0.8-2.8,0
	L382.1,93C381.3,92.2,381.3,91,382.1,90.2z"/>
<path class="st0" d="M363.1,109.1L377.3,95c0.8-0.8,2.1-0.8,2.8,0l14.1,14.1c0.8,0.8,0.8,2.1,0,2.8l-14.1,14.1
	c-0.8,0.8-2.1,0.8-2.8,0l-14.1-14.1C362.4,111.1,362.4,109.9,363.1,109.1z"/>
<path class="st0" d="M344.2,128l14.1-14.1c0.8-0.8,2.1-0.8,2.8,0l14.1,14.1"/>
<path class="st0" d="M382.2,52.5l14.1-14.1c0.8-0.8,2.1-0.8,2.8,0l14.1,14.1c0.8,0.8,0.8,2.1,0,2.8l-14.1,14.1
	c-0.8,0.8-2.1,0.8-2.8,0l-14.1-14.1C381.4,54.5,381.4,53.2,382.2,52.5z"/>
<path class="st0" d="M363.2,71.4l14.1-14.1c0.8-0.8,2.1-0.8,2.8,0l14.1,14.1c0.8,0.8,0.8,2.1,0,2.8l-14.1,14.1
	c-0.8,0.8-2.1,0.8-2.8,0l-14.1-14.1C362.5,73.4,362.5,72.1,363.2,71.4z"/>
<path class="st0" d="M325.4,109.2l14.1-14.1c0.8-0.8,2.1-0.8,2.8,0l14.1,14.1c0.8,0.8,0.8,2.1,0,2.8l-14.1,14.1
	c-0.8,0.8-2.1,0.8-2.8,0L325.4,112C324.6,111.2,324.6,110,325.4,109.2z"/>
<path class="st0" d="M306.5,128.1l14.1-14.1c0.8-0.8,2.1-0.8,2.8,0l14.1,14.1"/>
<path class="st0" d="M382.3,14.7l14.1-14.1c0.8-0.8,2.1-0.8,2.8,0l14.1,14.1c0.8,0.8,0.8,2.1,0,2.8l-14.1,14.1
	c-0.8,0.8-2.1,0.8-2.8,0l-14.1-14.1C381.5,16.8,381.5,15.5,382.3,14.7z"/>
<path class="st0" d="M306.6,90.4l14.1-14.1c0.8-0.8,2.1-0.8,2.8,0l14.1,14.1c0.8,0.8,0.8,2.1,0,2.8l-14.1,14.1
	c-0.8,0.8-2.1,0.8-2.8,0l-14.1-14.1C305.8,92.4,305.8,91.2,306.6,90.4z"/>
<path class="st0" d="M287.7,109.3l14.1-14.1c0.8-0.8,2.1-0.8,2.8,0l14.1,14.1c0.8,0.8,0.8,2.1,0,2.8l-14.1,14.1
	c-0.8,0.8-2.1,0.8-2.8,0l-14.1-14.1C286.9,111.4,286.9,110.1,287.7,109.3z"/>
<path class="st0" d="M268.8,128.2l14.1-14.1c0.8-0.8,2.1-0.8,2.8,0l14.1,14.1"/>
<path class="st0" d="M287.8,71.6l14.1-14.1c0.8-0.8,2.1-0.8,2.8,0l14.1,14.1c0.8,0.8,0.8,2.1,0,2.8l-14.1,14.1
	c-0.8,0.8-2.1,0.8-2.8,0l-14.1-14.1C287,73.6,287,72.4,287.8,71.6z"/>
<path class="st0" d="M250,109.4l14.1-14.1c0.8-0.8,2.1-0.8,2.8,0l14.1,14.1c0.8,0.8,0.8,2.1,0,2.8l-14.1,14.1
	c-0.8,0.8-2.1,0.8-2.8,0L250,112.2C249.2,111.5,249.2,110.2,250,109.4z"/>
<path class="st0" d="M231,128.3l14.1-14.1c0.8-0.8,2.1-0.8,2.8,0l14.1,14.1"/>
<path class="st0" d="M287.9,33.8L302,19.7c0.8-0.8,2.1-0.8,2.8,0L319,33.8c0.8,0.8,0.8,2.1,0,2.8l-14.1,14.1c-0.8,0.8-2.1,0.8-2.8,0
	l-14.1-14.1C287.1,35.9,287.1,34.6,287.9,33.8z"/>
<path class="st0" d="M250.1,71.7l14.1-14.1c0.8-0.8,2.1-0.8,2.8,0l14.1,14.1c0.8,0.8,0.8,2.1,0,2.8L267,88.6c-0.8,0.8-2.1,0.8-2.8,0
	l-14.1-14.1C249.3,73.7,249.3,72.5,250.1,71.7z"/>
<path class="st0" d="M212.2,109.5l14.1-14.1c0.8-0.8,2.1-0.8,2.8,0l14.1,14.1c0.8,0.8,0.8,2.1,0,2.8l-14.1,14.1
	c-0.8,0.8-2.1,0.8-2.8,0l-14.1-14.1C211.4,111.6,211.4,110.3,212.2,109.5z"/>
<path class="st0" d="M193.3,128.4l14.1-14.1c0.8-0.8,2.1-0.8,2.8,0l14.1,14.1"/>
<path class="st0" d="M269.1,15l14.1-14.1c0.8-0.8,2.1-0.8,2.8,0L300.2,15c0.8,0.8,0.8,2.1,0,2.8L286,32c-0.8,0.8-2.1,0.8-2.8,0
	l-14.1-14.1C268.3,17.1,268.3,15.8,269.1,15z"/>
<path class="st0" d="M250.2,33.9l14.1-14.1c0.8-0.8,2.1-0.8,2.8,0l14.1,14.1c0.8,0.8,0.8,2.1,0,2.8l-14.1,14.1
	c-0.8,0.8-2.1,0.8-2.8,0l-14.1-14.1C249.4,36,249.4,34.7,250.2,33.9z"/>
<path class="st0" d="M212.3,71.8l14.1-14.1c0.8-0.8,2.1-0.8,2.8,0l14.1,14.1c0.8,0.8,0.8,2.1,0,2.8l-14.1,14.1
	c-0.8,0.8-2.1,0.8-2.8,0l-14.1-14.1C211.6,73.8,211.6,72.6,212.3,71.8z"/>
<path class="st0" d="M193.4,90.7l14.1-14.1c0.8-0.8,2.1-0.8,2.8,0l14.1,14.1c0.8,0.8,0.8,2.1,0,2.8l-14.1,14.1
	c-0.8,0.8-2.1,0.8-2.8,0l-14.1-14.1C192.6,92.7,192.6,91.5,193.4,90.7z"/>
<path class="st0" d="M174.5,109.6l14.1-14.1c0.8-0.8,2.1-0.8,2.8,0l14.1,14.1c0.8,0.8,0.8,2.1,0,2.8l-14.1,14.1
	c-0.8,0.8-2.1,0.8-2.8,0l-14.1-14.1C173.7,111.7,173.7,110.4,174.5,109.6z"/>
<path class="st0" d="M155.6,128.5l14.1-14.1c0.8-0.8,2.1-0.8,2.8,0l14.1,14.1"/>
<path class="st0" d="M212.4,34l14.1-14.1c0.8-0.8,2.1-0.8,2.8,0L243.5,34c0.8,0.8,0.8,2.1,0,2.8L229.4,51c-0.8,0.8-2.1,0.8-2.8,0
	l-14.1-14.1C211.7,36.1,211.7,34.8,212.4,34z"/>
<path class="st0" d="M193.5,53l14.1-14.1c0.8-0.8,2.1-0.8,2.8,0L224.6,53c0.8,0.8,0.8,2.1,0,2.8l-14.1,14.1c-0.8,0.8-2.1,0.8-2.8,0
	l-14.1-14.1C192.7,55,192.7,53.7,193.5,53z"/>
<path class="st0" d="M155.7,90.8l14.1-14.1c0.8-0.8,2.1-0.8,2.8,0l14.1,14.1c0.8,0.8,0.8,2.1,0,2.8l-14.1,14.1
	c-0.8,0.8-2.1,0.8-2.8,0l-14.1-14.1C154.9,92.8,154.9,91.6,155.7,90.8z"/>
<path class="st0" d="M136.8,109.7l14.1-14.1c0.8-0.8,2.1-0.8,2.8,0l14.1,14.1c0.8,0.8,0.8,2.1,0,2.8l-14.1,14.1
	c-0.8,0.8-2.1,0.8-2.8,0l-14.1-14.1C136,111.8,136,110.5,136.8,109.7z"/>
<path class="st0" d="M117.9,128.6l14.1-14.1c0.8-0.8,2.1-0.8,2.8,0l14.1,14.1"/>
<path class="st0" d="M155.8,53.1l14.1-14.1c0.8-0.8,2.1-0.8,2.8,0l14.1,14.1c0.8,0.8,0.8,2.1,0,2.8L172.8,70c-0.8,0.8-2.1,0.8-2.8,0
	l-14.1-14.1C155,55.1,155,53.8,155.8,53.1z"/>
<path class="st0" d="M136.9,72L151,57.8c0.8-0.8,2.1-0.8,2.8,0L168,72c0.8,0.8,0.8,2.1,0,2.8L153.8,89c-0.8,0.8-2.1,0.8-2.8,0
	l-14.1-14.1C136.1,74,136.1,72.8,136.9,72z"/>
<path class="st0" d="M99,109.8l14.1-14.1c0.8-0.8,2.1-0.8,2.8,0l14.1,14.1c0.8,0.8,0.8,2.1,0,2.8L116,126.8c-0.8,0.8-2.1,0.8-2.8,0
	L99,112.6C98.3,111.9,98.3,110.6,99,109.8z"/>
<path class="st0" d="M80.1,128.7l14.1-14.1c0.8-0.8,2.1-0.8,2.8,0l14.1,14.1"/>
<path class="st0" d="M155.9,15.3L170,1.2c0.8-0.8,2.1-0.8,2.8,0L187,15.3c0.8,0.8,0.8,2.1,0,2.8l-14.1,14.1c-0.8,0.8-2.1,0.8-2.8,0
	l-14.1-14.1C155.1,17.4,155.1,16.1,155.9,15.3z"/>
<path class="st0" d="M137,34.3l14.1-14.1c0.8-0.8,2.1-0.8,2.8,0l14.1,14.1c0.8,0.8,0.8,2.1,0,2.8l-14.1,14.1c-0.8,0.8-2.1,0.8-2.8,0
	L137,37.1C136.2,36.3,136.2,35,137,34.3z"/>
<path class="st0" d="M99.1,72.1l14.1-14.1c0.8-0.8,2.1-0.8,2.8,0l14.1,14.1c0.8,0.8,0.8,2.1,0,2.8l-14.1,14.1
	c-0.8,0.8-2.1,0.8-2.8,0L99.1,74.9C98.4,74.1,98.4,72.9,99.1,72.1z"/>
<path class="st0" d="M61.3,109.9l14.1-14.1c0.8-0.8,2.1-0.8,2.8,0l14.1,14.1c0.8,0.8,0.8,2.1,0,2.8l-14.1,14.1
	c-0.8,0.8-2.1,0.8-2.8,0l-14.1-14.1C60.5,112,60.5,110.7,61.3,109.9z"/>
<path class="st0" d="M42.4,128.8l14.1-14.1c0.8-0.8,2.1-0.8,2.8,0l14.1,14.1"/>
<path class="st0" d="M42.5,91.1L56.6,77c0.8-0.8,2.1-0.8,2.8,0l14.1,14.1c0.8,0.8,0.8,2.1,0,2.8l-14.1,14.1c-0.8,0.8-2.1,0.8-2.8,0
	L42.5,93.9C41.7,93.2,41.7,91.9,42.5,91.1z"/>
<path class="st0" d="M23.6,110l14.1-14.1c0.8-0.8,2.1-0.8,2.8,0L54.7,110c0.8,0.8,0.8,2.1,0,2.8L40.6,127c-0.8,0.8-2.1,0.8-2.8,0
	l-14.1-14.1C22.8,112.1,22.8,110.8,23.6,110z"/>
<path class="st0" d="M4.7,128.9l14.1-14.1c0.8-0.8,2.1-0.8,2.8,0l14.1,14.1"/>
<path class="st0" d="M23.7,72.3l14.1-14.1c0.8-0.8,2.1-0.8,2.8,0l14.1,14.1c0.8,0.8,0.8,2.1,0,2.8L40.7,89.3c-0.8,0.8-2.1,0.8-2.8,0
	L23.7,75.1C22.9,74.3,22.9,73.1,23.7,72.3z"/>
<path class="st0" d="M4.8,91.2l14.1-14.1c0.8-0.8,2.1-0.8,2.8,0l14.1,14.1c0.8,0.8,0.8,2.1,0,2.8l-14.1,14.1c-0.8,0.8-2.1,0.8-2.8,0
	L4.8,94C4,93.3,4,92,4.8,91.2z"/>
<path class="st0" d="M0,96c0.8-0.8,2.1-0.8,2.8,0L17,110.1c0.8,0.8,0.8,2.1,0,2.8L2.8,127.1c-0.8,0.8-2.1,0.8-2.8,0"/>
</svg>
